<?xml version="1.0" encoding="UTF-8" standalone="no"?>
<!-- Created with Inkscape (http://www.inkscape.org/) -->

<svg
   width="114.98736mm"
   height="40.01038mm"
   viewBox="0 0 114.98736 40.01038"
   version="1.1"
   id="svg1"
   xml:space="preserve"
   xmlns:xlink="http://www.w3.org/1999/xlink"
   xmlns="http://www.w3.org/2000/svg"
   xmlns:svg="http://www.w3.org/2000/svg"><defs
     id="defs1"><linearGradient
       id="linearGradient955"><stop
         style="stop-color:#ffffff;stop-opacity:1;"
         offset="0.49193549"
         id="stop954" /><stop
         style="stop-color:#c4e7ff;stop-opacity:1;"
         offset="0.55645168"
         id="stop955" /></linearGradient><linearGradient
       id="linearGradient951"><stop
         style="stop-color:#c4e7ff;stop-opacity:1;"
         offset="0.46572584"
         id="stop951" /><stop
         style="stop-color:#ffffff;stop-opacity:1;"
         offset="0.52822578"
         id="stop952" /></linearGradient><linearGradient
       xlink:href="#linearGradient951"
       id="linearGradient952"
       x1="119.74439"
       y1="24.35169"
       x2="119.74438"
       y2="97.341347"
       gradientUnits="userSpaceOnUse"
       spreadMethod="pad" /><linearGradient
       xlink:href="#linearGradient955"
       id="linearGradient954"
       x1="120.01358"
       y1="39.406948"
       x2="120.01358"
       y2="111.91092"
       gradientUnits="userSpaceOnUse" /><linearGradient
       xlink:href="#linearGradient955"
       id="linearGradient1027"
       gradientUnits="userSpaceOnUse"
       x1="120.01358"
       y1="39.406948"
       x2="120.01358"
       y2="111.91092" /><linearGradient
       xlink:href="#linearGradient955"
       id="linearGradient1028"
       gradientUnits="userSpaceOnUse"
       x1="120.01358"
       y1="39.406948"
       x2="120.01358"
       y2="111.91092"
       gradientTransform="translate(0.33985613)" /><linearGradient
       xlink:href="#linearGradient955"
       id="linearGradient1029"
       gradientUnits="userSpaceOnUse"
       x1="120.01358"
       y1="39.406948"
       x2="120.01358"
       y2="111.91092"
       gradientTransform="translate(0.33985613)" /><linearGradient
       xlink:href="#linearGradient955"
       id="linearGradient1030"
       gradientUnits="userSpaceOnUse"
       x1="120.01358"
       y1="39.406948"
       x2="120.01358"
       y2="111.91092" /><linearGradient
       xlink:href="#linearGradient955"
       id="linearGradient1031"
       gradientUnits="userSpaceOnUse"
       x1="120.01358"
       y1="39.406948"
       x2="120.01358"
       y2="111.91092" /><linearGradient
       xlink:href="#linearGradient955"
       id="linearGradient1032"
       gradientUnits="userSpaceOnUse"
       x1="120.01358"
       y1="39.406948"
       x2="120.01358"
       y2="111.91092" /><linearGradient
       xlink:href="#linearGradient955"
       id="linearGradient1033"
       gradientUnits="userSpaceOnUse"
       x1="120.01358"
       y1="39.406948"
       x2="120.01358"
       y2="111.91092" /><linearGradient
       xlink:href="#linearGradient955"
       id="linearGradient1034"
       gradientUnits="userSpaceOnUse"
       x1="120.01358"
       y1="39.406948"
       x2="120.01358"
       y2="111.91092" /><linearGradient
       xlink:href="#linearGradient951"
       id="linearGradient1035"
       gradientUnits="userSpaceOnUse"
       x1="119.74439"
       y1="24.35169"
       x2="119.74438"
       y2="97.341347"
       spreadMethod="pad"
       gradientTransform="translate(-0.07899203)" /><linearGradient
       xlink:href="#linearGradient951"
       id="linearGradient1036"
       gradientUnits="userSpaceOnUse"
       x1="119.74439"
       y1="24.35169"
       x2="119.74438"
       y2="97.341347"
       spreadMethod="pad"
       gradientTransform="translate(1.2539985)" /><linearGradient
       xlink:href="#linearGradient951"
       id="linearGradient1037"
       gradientUnits="userSpaceOnUse"
       x1="119.74439"
       y1="24.35169"
       x2="119.74438"
       y2="97.341347"
       spreadMethod="pad"
       gradientTransform="translate(0.83599898)" /><linearGradient
       xlink:href="#linearGradient951"
       id="linearGradient1038"
       gradientUnits="userSpaceOnUse"
       x1="119.74439"
       y1="24.35169"
       x2="119.74438"
       y2="97.341347"
       spreadMethod="pad"
       gradientTransform="translate(0.41799949)" /><linearGradient
       xlink:href="#linearGradient951"
       id="linearGradient1039"
       gradientUnits="userSpaceOnUse"
       x1="119.74439"
       y1="24.35169"
       x2="119.74438"
       y2="97.341347"
       spreadMethod="pad" /><linearGradient
       xlink:href="#linearGradient951"
       id="linearGradient1040"
       gradientUnits="userSpaceOnUse"
       x1="119.74439"
       y1="24.35169"
       x2="119.74438"
       y2="97.341347"
       spreadMethod="pad" /><linearGradient
       xlink:href="#linearGradient951"
       id="linearGradient1041"
       gradientUnits="userSpaceOnUse"
       x1="119.74439"
       y1="24.35169"
       x2="119.74438"
       y2="97.341347"
       spreadMethod="pad" /><linearGradient
       xlink:href="#linearGradient951"
       id="linearGradient1042"
       gradientUnits="userSpaceOnUse"
       x1="119.74439"
       y1="24.35169"
       x2="119.74438"
       y2="97.341347"
       spreadMethod="pad" /><linearGradient
       xlink:href="#linearGradient951"
       id="linearGradient1043"
       gradientUnits="userSpaceOnUse"
       x1="119.74439"
       y1="24.35169"
       x2="119.74438"
       y2="97.341347"
       spreadMethod="pad" /><linearGradient
       xlink:href="#linearGradient951"
       id="linearGradient1059"
       gradientUnits="userSpaceOnUse"
       x1="119.74439"
       y1="24.35169"
       x2="119.74438"
       y2="97.341347"
       spreadMethod="pad" /><linearGradient
       xlink:href="#linearGradient951"
       id="linearGradient1060"
       gradientUnits="userSpaceOnUse"
       x1="119.74439"
       y1="24.35169"
       x2="119.74438"
       y2="97.341347"
       spreadMethod="pad" /><linearGradient
       xlink:href="#linearGradient951"
       id="linearGradient1061"
       gradientUnits="userSpaceOnUse"
       x1="119.74439"
       y1="24.35169"
       x2="119.74438"
       y2="97.341347"
       spreadMethod="pad" /><linearGradient
       xlink:href="#linearGradient951"
       id="linearGradient1062"
       gradientUnits="userSpaceOnUse"
       x1="119.74439"
       y1="24.35169"
       x2="119.74438"
       y2="97.341347"
       spreadMethod="pad" /><linearGradient
       xlink:href="#linearGradient951"
       id="linearGradient1063"
       gradientUnits="userSpaceOnUse"
       x1="119.74439"
       y1="24.35169"
       x2="119.74438"
       y2="97.341347"
       spreadMethod="pad" /><linearGradient
       xlink:href="#linearGradient951"
       id="linearGradient1064"
       gradientUnits="userSpaceOnUse"
       x1="119.74439"
       y1="24.35169"
       x2="119.74438"
       y2="97.341347"
       spreadMethod="pad" /><linearGradient
       xlink:href="#linearGradient951"
       id="linearGradient1065"
       gradientUnits="userSpaceOnUse"
       x1="119.74439"
       y1="24.35169"
       x2="119.74438"
       y2="97.341347"
       spreadMethod="pad" /><linearGradient
       xlink:href="#linearGradient951"
       id="linearGradient1072"
       gradientUnits="userSpaceOnUse"
       x1="119.74439"
       y1="24.35169"
       x2="119.74438"
       y2="97.341347"
       spreadMethod="pad" /><linearGradient
       xlink:href="#linearGradient951"
       id="linearGradient1073"
       gradientUnits="userSpaceOnUse"
       x1="119.74439"
       y1="24.35169"
       x2="119.74438"
       y2="97.341347"
       spreadMethod="pad" /><linearGradient
       xlink:href="#linearGradient955"
       id="linearGradient1074"
       gradientUnits="userSpaceOnUse"
       x1="120.01358"
       y1="39.406948"
       x2="120.01358"
       y2="111.91092" /><linearGradient
       xlink:href="#linearGradient955"
       id="linearGradient1075"
       gradientUnits="userSpaceOnUse"
       x1="120.01358"
       y1="39.406948"
       x2="120.01358"
       y2="111.91092" /><linearGradient
       xlink:href="#linearGradient955"
       id="linearGradient1076"
       gradientUnits="userSpaceOnUse"
       x1="120.01358"
       y1="39.406948"
       x2="120.01358"
       y2="111.91092" /><linearGradient
       xlink:href="#linearGradient955"
       id="linearGradient2"
       gradientUnits="userSpaceOnUse"
       x1="120.01358"
       y1="39.406948"
       x2="120.01358"
       y2="111.91092" /><linearGradient
       xlink:href="#linearGradient955"
       id="linearGradient3"
       gradientUnits="userSpaceOnUse"
       x1="120.01358"
       y1="39.406948"
       x2="120.01358"
       y2="111.91092" /><linearGradient
       xlink:href="#linearGradient955"
       id="linearGradient4"
       gradientUnits="userSpaceOnUse"
       x1="120.01358"
       y1="39.406948"
       x2="120.01358"
       y2="111.91092" /><linearGradient
       xlink:href="#linearGradient955"
       id="linearGradient5"
       gradientUnits="userSpaceOnUse"
       x1="120.01358"
       y1="39.406948"
       x2="120.01358"
       y2="111.91092" /><linearGradient
       xlink:href="#linearGradient955"
       id="linearGradient6"
       gradientUnits="userSpaceOnUse"
       x1="120.01358"
       y1="39.406948"
       x2="120.01358"
       y2="111.91092" /></defs><g
     id="layer1"
     transform="translate(-30.676001,-67.551332)"><g
       id="text8"
       style="font-size:16.9333px;font-family:Grenze;-inkscape-font-specification:Grenze;display:inline;stroke:#000000;stroke-width:0.19748;stroke-dasharray:none;stroke-opacity:1"
       aria-label="BUSHCRAFT&#10;SURVIVAL"
       transform="matrix(1.2659505,0,0,1.2659505,-65.242601,-3.6279923)"><g
         id="g886"
         transform="matrix(1.2299307,0,0,1.2299307,-26.545307,-15.141147)"
         style="font-size:16.9333px;font-family:Grenze;-inkscape-font-specification:Grenze;display:inline;fill:#000000;fill-opacity:1;stroke:none;stroke-width:0.321124;stroke-dasharray:none;stroke-opacity:1" /><g
         id="g1002"
         transform="matrix(1.2299307,0,0,1.2299307,-27.153903,-15.426186)"
         style="display:inline;fill:url(#linearGradient954);fill-opacity:1;stroke:#000000;stroke-width:0.160562;stroke-dasharray:none;stroke-opacity:1"><g
           id="g1071"
           style="fill:url(#linearGradient1076)"
           transform="translate(0.43123692)"><path
             d="m 148.34419,79.706901 1.60644,-1.207245 v -7.586118 l -1.03293,-0.389466 v -0.965198 l 4.37146,-0.307903 0.42067,0.307903 v 0.999065 l -1.23613,0.389465 v 7.433719 l 2.53999,0.270933 0.33867,-2.218262 0.8431,-0.300393 0.40996,0.300393 c -0.19668,2.689663 -0.47313,4.946969 -0.56098,7.091435 -0.4616,-1.558707 -1.31018,-3.670909 -1.31018,-3.670909 0,0 -2.53945,0.35183 -3.13518,1.15026 -0.1357,-1.018715 -0.74255,-1.15026 -0.74255,-1.15026 h -1.93886 z"
             id="path42"
             style="font-size:16.9333px;font-family:Grenze;-inkscape-font-specification:Grenze;display:inline;fill:#000000;fill-opacity:1;stroke:none;stroke-width:0.321124;stroke-dasharray:none;stroke-opacity:1"
             transform="translate(0.49482154,0.23175212)" /><path
             d="m 148.9177,78.88938 1.03293,-0.389466 V 70.913796 L 148.9177,70.52433 v -0.965198 h 4.79213 v 0.999065 l -1.23613,0.389465 v 7.433719 l 2.53999,0.270933 0.33867,-2.218262 h 1.25306 c 0,0 -0.27297,5.289821 -0.34634,5.973733 -0.6254,-2.05331 -1.52482,-2.553207 -1.52482,-2.553207 0,0 -1.98718,-0.06237 -2.58291,0.73606 -0.1357,-1.018715 -1.29482,-0.73606 -1.29482,-0.73606 h -1.93886 z"
             id="path996"
             style="fill:url(#linearGradient1028);fill-opacity:1;stroke:#000000;stroke-width:0.160562;stroke-dasharray:none;stroke-opacity:1" /></g><g
           id="g1070"
           style="fill:url(#linearGradient1075)"
           transform="translate(0.44934766)"><path
             id="path40"
             d="m 143.78602,69.271202 c -0.22578,0.02257 -0.51412,0.163273 -1.0447,0.219722 -0.51928,0.04516 -1.00469,0.101765 -1.45624,0.169499 l -2.79363,8.889896 -1.05006,0.338998 c 0,0 -1.10497,2.279291 0.19816,3.925356 0.1781,-0.689661 0.25991,-1.509547 0.90439,-1.954212 1.23334,-0.850958 3.28323,-1.006345 3.28323,-1.006345 v -1.083655 l -0.41341,-0.29992 -0.77205,-0.005 0.40669,-1.727026 h 2.87838 l 0.47439,1.727026 -1.15187,0.304891 -0.55197,0.933458 c 0,0 1.31366,0.210251 1.58302,0.775899 0.0567,-0.455313 1.08603,-0.579698 1.49105,-0.579698 0.40501,0 0.49506,0.574998 0.76256,1.631643 0.51346,-1.02193 1.57551,-1.677647 1.57551,-1.677647 v -0.964799 l -0.41587,-0.287035 -0.63419,-0.05196 -2.84479,-8.991699 c -0.19192,-0.124177 -0.39474,-0.287418 -0.4286,-0.287418 z m -1.40023,2.235103 h 0.18655 l 0.99891,3.928442 h -2.18437 z"
             style="font-size:16.9333px;font-family:Grenze;-inkscape-font-specification:Grenze;display:inline;fill:#000000;fill-opacity:1;stroke:none;stroke-width:0.321124;stroke-dasharray:none;stroke-opacity:1"
             transform="translate(0.49482154,0.23175212)" /><path
             id="path997"
             d="m 143.87614,69.372843 c -0.22578,0.02257 -0.60424,0.06189 -1.13482,0.118339 -0.51928,0.04516 -1.00469,0.101765 -1.45624,0.169499 l -2.79363,8.889896 -1.05006,0.338998 c 0,0 -0.58457,0.978279 0.23002,2.942959 0.90659,-1.669614 4.15576,-1.97816 4.15576,-1.97816 v -1.083655 l -1.18546,-0.304891 0.40669,-1.727026 h 2.87838 l 0.47439,1.727026 -1.15187,0.304891 v 1.083655 c 0,0 0.83303,-0.184015 1.21504,0.299024 0.45102,-0.230018 0.90204,-0.25302 1.30706,-0.25302 0.40501,0 0.64901,0.207016 1.12303,1.012082 0.56603,-0.943077 1.21504,-1.058086 1.21504,-1.058086 v -0.964799 l -1.05006,-0.338998 -2.84479,-8.991699 C 144.0227,69.434701 143.91,69.372843 143.87614,69.372843 Z m -1.49035,2.13372 h 0.18655 l 0.99891,3.928442 h -2.18437 z"
             style="fill:url(#linearGradient1029);fill-opacity:1;stroke:#000000;stroke-width:0.160562;stroke-dasharray:none;stroke-opacity:1" /></g><g
           id="g1069"
           style="fill:url(#linearGradient1074)"
           transform="translate(0.25698341)"><path
             d="m 133.09184,80.023911 c -0.0451,0 -0.16367,-0.05644 -0.3556,-0.169333 l -2.54,-8.991582 -1.04986,-0.338666 v -0.965198 l 4.37498,-0.307903 0.40021,0.307903 v 1.083731 l -1.08373,0.304799 0.93133,3.826926 c 0.13547,0.553155 0.33867,1.473197 0.6096,2.760128 h 0.18626 l 0.1524,-0.660399 c 0.0565,-0.248355 0.25402,-1.100664 0.59267,-2.556928 0.33867,-1.467553 0.58138,-2.590795 0.72813,-3.369727 l -1.10067,-0.304799 v -1.083731 l 3.88574,-0.315413 0.41532,0.315413 v 0.965198 l -1.04986,0.338666 -2.52306,8.889982 c -0.32738,0.03387 -0.81909,2.108029 -1.47551,3.308656 -0.39619,-1.759561 -0.82742,-3.0603 -1.09835,-3.037723 z"
             id="path39"
             style="font-size:16.9333px;font-family:Grenze;-inkscape-font-specification:Grenze;display:inline;fill:#000000;fill-opacity:1;stroke:none;stroke-width:0.321124;stroke-dasharray:none;stroke-opacity:1"
             transform="translate(0.49482154,0.23175212)" /><path
             d="m 133.09184,80.023911 c -0.0451,0 -0.16367,-0.05644 -0.3556,-0.169333 l -2.54,-8.991582 -1.04986,-0.338666 v -0.965198 h 4.77519 v 1.083731 l -1.08373,0.304799 0.93133,3.826926 c 0.13547,0.553155 0.33867,1.473197 0.6096,2.760128 h 0.18626 l 0.1524,-0.660399 c 0.0565,-0.248355 0.25402,-1.100664 0.59267,-2.556928 0.33867,-1.467553 0.58138,-2.590795 0.72813,-3.369727 l -1.10067,-0.304799 v -1.083731 h 4.30106 v 0.965198 l -1.04986,0.338666 -2.52306,8.889982 c -0.32738,0.03387 -0.42107,1.342026 -1.07749,2.542653 -0.39619,-1.759561 -1.22544,-2.294297 -1.49637,-2.27172 z"
             id="path998"
             style="fill:url(#linearGradient1030);fill-opacity:1;stroke:#000000;stroke-width:0.160562;stroke-dasharray:none;stroke-opacity:1" /></g><g
           id="g1068"
           style="fill:url(#linearGradient2)"><path
             d="m 123.79547,78.88938 1.08373,-0.389466 v -7.586118 l -1.10066,-0.389466 v -0.965198 l 4.3266,-0.307995 0.39779,0.307995 v 0.999065 l -1.10067,0.389465 v 7.518386 l 0.68737,0.07718 0.4133,0.295354 v 1.015998 c 0,0 -0.91666,0.662028 -1.24587,1.472119 -0.0973,0.278365 -0.21172,0.162175 -0.33653,0.55491 -0.10665,-0.505489 -0.4974,-1.9493 -0.77131,-2.027029 -0.498,-0.141323 -0.83497,0.312599 -1.41718,0.726636 -0.31183,-0.508378 -0.99287,-0.884342 -0.99287,-0.884342 z"
             id="path38"
             style="font-size:16.9333px;font-family:Grenze;-inkscape-font-specification:Grenze;display:inline;fill:#000000;fill-opacity:1;stroke:none;stroke-width:0.321124;stroke-dasharray:none;stroke-opacity:1"
             transform="translate(0.49482154,0.23175212)" /><path
             d="m 123.79547,78.88938 1.08373,-0.389466 v -7.586118 l -1.10066,-0.389466 v -0.965198 h 4.72439 v 0.999065 l -1.10067,0.389465 v 7.518386 l 1.10067,0.372532 v 1.015998 c 0,0 -0.91666,0.662028 -1.24587,1.472119 -0.44423,-0.800039 -0.60986,-1.330796 -1.10786,-1.472119 -0.498,-0.141323 -0.59466,0.046 -1.17687,0.460037 -0.39819,-0.437035 -1.17686,-0.460037 -1.17686,-0.460037 z"
             id="path999"
             style="fill:url(#linearGradient1031);fill-opacity:1;stroke:#000000;stroke-width:0.160562;stroke-dasharray:none;stroke-opacity:1" /></g><g
           id="g1067"
           style="fill:url(#linearGradient3)"><path
             d="m 116.78,80.023911 c -0.0452,0 -0.16368,-0.05644 -0.3556,-0.169333 l -2.53999,-8.991582 -1.04986,-0.338666 v -0.965198 l 4.35271,-0.313305 0.42248,0.313305 v 1.083731 l -1.08374,0.304799 0.93134,3.826926 c 0.13546,0.553155 0.33866,1.473197 0.6096,2.760128 h 0.18626 l 0.1524,-0.660399 c 0.0564,-0.248355 0.254,-1.100664 0.59267,-2.556928 0.33866,-1.467553 0.58137,-2.590795 0.72813,-3.369727 l -1.10067,-0.304799 v -1.083731 l 3.88772,-0.302684 0.41334,0.302684 v 0.965198 l -1.04986,0.338666 c 0,0 -2.22048,9.087136 -2.54519,10.829209 -0.0439,0.276835 -0.0649,0.452762 -0.1636,1.15745 -0.34994,-0.925929 -0.77711,-2.254439 -1.22453,-2.555158 -0.55315,0.06773 -0.89267,-0.293163 -1.16361,-0.270586 z"
             id="path37"
             style="font-size:16.9333px;font-family:Grenze;-inkscape-font-specification:Grenze;display:inline;fill:#000000;fill-opacity:1;stroke:none;stroke-width:0.321124;stroke-dasharray:none;stroke-opacity:1"
             transform="translate(0.49482154,0.23175212)" /><path
             d="m 116.78,80.023911 c -0.0452,0 -0.16368,-0.05644 -0.3556,-0.169333 l -2.53999,-8.991582 -1.04986,-0.338666 v -0.965198 h 4.77519 v 1.083731 l -1.08374,0.304799 0.93134,3.826926 c 0.13546,0.553155 0.33866,1.473197 0.6096,2.760128 h 0.18626 l 0.1524,-0.660399 c 0.0564,-0.248355 0.254,-1.100664 0.59267,-2.556928 0.33866,-1.467553 0.58137,-2.590795 0.72813,-3.369727 l -1.10067,-0.304799 v -1.083731 h 4.30106 v 0.965198 l -1.04986,0.338666 c 0,0 -2.20986,9.103067 -2.53457,10.84514 -0.50871,-1.374679 -0.81929,-1.485104 -1.38373,-1.428659 -0.55315,0.06773 -0.90769,-0.278143 -1.17863,-0.255566 z"
             id="path1000"
             style="fill:url(#linearGradient1032);fill-opacity:1;stroke:#000000;stroke-width:0.160562;stroke-dasharray:none;stroke-opacity:1" /></g><g
           id="g1066"
           style="fill:url(#linearGradient4)"><path
             id="path35"
             style="font-size:16.9333px;font-family:Grenze;-inkscape-font-specification:Grenze;display:inline;fill:#000000;fill-opacity:1;stroke:none;stroke-width:0.321124;stroke-dasharray:none;stroke-opacity:1"
             d="m 103.94527,69.558878 v 0.965316 l 1.03302,0.38964 v 7.5861 l -1.03302,0.389641 c 0,0 -0.38047,1.953133 -0.28151,2.933814 0.26478,-0.30144 0.50884,-0.245899 0.53453,-0.05986 0.2139,-0.50885 0.56722,-1.142101 0.95415,-1.363059 0.1603,0.07161 0.20501,0.158956 0.38837,0.573051 0.47374,-0.926782 3.02692,-1.119146 3.02692,-1.119146 v -1.049549 l -0.40774,-0.292866 -0.65886,-0.130364 v -2.692858 h 0.82992 l 1.84537,4.165637 c 0,0 -0.31227,0.0046 0.54252,0.845939 0.60857,-1.122026 1.43176,-0.549673 1.70859,-0.173169 0.46557,0.633186 0.10542,1.50431 0.23847,1.9827 0.20878,0.257024 0.27146,0.383223 0.54517,1.212067 -0.0231,-0.597956 0.0643,-4.866443 0.0643,-4.866443 l -0.42275,-0.294512 -0.49192,-0.06102 -0.64337,-1.066601 -1.20199,-1.998328 v -0.101802 c 0.51928,-0.225777 0.9313,-0.581181 1.2361,-1.066602 0.3048,-0.485421 0.45733,-1.100817 0.45733,-1.845882 0,-1.027287 -0.23168,-1.761151 -0.69453,-2.201416 -0.45155,-0.440266 -1.12881,-0.660425 -2.03192,-0.660425 z m 4.8426,1.270207 c 0.57573,0 0.86403,0.654712 0.86403,1.964221 0,0.451555 -0.0456,0.790181 -0.13591,1.015959 -0.0903,0.214488 -0.22555,0.355496 -0.40617,0.42323 -0.16934,0.06773 -0.40627,0.101802 -0.71107,0.101802 h -0.89762 V 70.98153 Z"
             transform="translate(0.49482154,0.23175212)" /><path
             id="path1001"
             style="display:inline;fill:url(#linearGradient1033);fill-opacity:1;stroke:#000000;stroke-width:0.160562;stroke-dasharray:none;stroke-opacity:1"
             d="m 103.94527,69.558878 v 0.965316 l 1.03302,0.38964 v 7.5861 l -1.03302,0.389641 c 0,0 0.12206,1.925697 0.25302,2.873953 0.37601,-0.894482 1.18282,-2.173368 1.84568,-0.92143 0.47374,-0.926782 2.52376,-0.987724 2.52376,-0.987724 v -1.049549 l -1.0666,-0.42323 v -2.692858 h 0.82992 l 1.84537,4.165637 c 0,0 0.49336,0.554986 0.89493,0.836073 0.60857,-1.122026 1.07934,-0.539803 1.35618,-0.163303 0.72301,0.983318 0.64095,2.477084 1.00894,2.316117 -0.0231,-0.597956 -0.16102,-3.987793 -0.16102,-3.987793 l -0.91467,-0.355534 -0.64337,-1.066601 -1.20199,-1.998328 v -0.101802 c 0.51928,-0.225777 0.9313,-0.581181 1.2361,-1.066602 0.3048,-0.485421 0.45733,-1.100817 0.45733,-1.845882 0,-1.027287 -0.23168,-1.761151 -0.69453,-2.201416 -0.45155,-0.440266 -1.12881,-0.660425 -2.03192,-0.660425 z m 4.8426,1.270207 c 0.57573,0 0.86403,0.654712 0.86403,1.964221 0,0.451555 -0.0456,0.790181 -0.13591,1.015959 -0.0903,0.214488 -0.22555,0.355496 -0.40617,0.42323 -0.16934,0.06773 -0.40627,0.101802 -0.71107,0.101802 h -0.89762 V 70.98153 Z" /></g><g
           id="g1065"
           style="fill:url(#linearGradient5)"><path
             d="m 96.634461,80.040845 c -1.083731,0 -1.857019,-0.270933 -2.319862,-0.812799 -0.462844,-0.553155 -0.694266,-1.416753 -0.694266,-2.590795 V 70.913796 L 92.587402,70.52433 v -0.965198 l 4.094488,-0.315413 0.40977,0.315413 v 1.083731 l -0.982131,0.406399 v 5.096924 c 0,0.733776 0.08467,1.219197 0.253999,1.456263 0.169333,0.225777 0.417688,0.338666 0.745065,0.338666 0.248355,0 0.615244,-0.06209 1.100665,-0.186266 0.485421,-0.135467 0.767643,-0.214489 0.846665,-0.237066 v -6.468521 l -0.982132,-0.406399 v -1.083731 l 4.090279,-0.311658 0.41398,0.311658 v 0.965198 l -1.03293,0.389466 v 7.586118 l 0.38041,-0.04575 0.4225,0.2972 c 0,0 0.0911,0.891094 -0.31681,1.777701 -0.34329,-0.89496 -0.59631,-0.113117 -0.55726,1.625694 -0.0159,0.81947 0.18081,0.670334 -0.41281,0.03711 -1.01316,-1.578605 -1.548024,-2.337296 -1.548024,-2.337296 L 99.140593,78.83858 c -1.569152,0.80151 -2.404528,1.202265 -2.506128,1.202265 z"
             id="path11"
             style="font-size:16.9333px;font-family:Grenze;-inkscape-font-specification:Grenze;display:inline;fill:#000000;fill-opacity:1;stroke:none;stroke-width:0.321124;stroke-dasharray:none;stroke-opacity:1"
             transform="translate(0.49482154,0.23175212)" /><path
             d="m 96.634461,80.040845 c -1.083731,0 -1.857019,-0.270933 -2.319862,-0.812799 -0.462844,-0.553155 -0.694266,-1.416753 -0.694266,-2.590795 V 70.913796 L 92.587402,70.52433 v -0.965198 h 4.504258 v 1.083731 l -0.982131,0.406399 v 5.096924 c 0,0.733776 0.08467,1.219197 0.253999,1.456263 0.169333,0.225777 0.417688,0.338666 0.745065,0.338666 0.248355,0 0.615244,-0.06209 1.100665,-0.186266 0.485421,-0.135467 0.767643,-0.214489 0.846665,-0.237066 v -6.468521 l -0.982132,-0.406399 v -1.083731 h 4.504259 v 0.965198 l -1.03293,0.389466 v 7.586118 l 0.80291,0.251455 c 0,0 0.0911,0.891094 -0.31681,1.777701 -0.34329,-0.89496 -0.59631,-0.113117 -0.55726,1.625694 -1.25599,-1.950817 -1.960834,-2.300186 -1.960834,-2.300186 L 99.140593,78.83858 c -1.569152,0.80151 -2.404528,1.202265 -2.506128,1.202265 z"
             id="path1002"
             style="fill:url(#linearGradient1034);fill-opacity:1;stroke:#000000;stroke-width:0.160562;stroke-dasharray:none;stroke-opacity:1" /></g><g
           id="g1072"
           style="font-size:16.9333px;font-family:Grenze;-inkscape-font-specification:Grenze;display:inline;fill:url(#linearGradient6);fill-opacity:1;stroke:#000000;stroke-width:0.160562;stroke-dasharray:none;stroke-opacity:1"><path
             style="font-size:20.4611px;font-family:Grenze;-inkscape-font-specification:Grenze;display:inline;fill:#000000;fill-opacity:1;stroke:none;stroke-width:0.321124;stroke-dasharray:none;stroke-opacity:1"
             d="m 87.922882,80.27104 c 0,0 -1.94973,-0.04453 -2.134455,1.204738 -0.06059,-0.304715 -0.387799,-0.189748 -0.508227,-0.219273 -0.509868,0.04091 -1.701245,2.349411 -1.701245,2.349411 l -0.05381,-0.713754 0.236443,-2.889589 0.134235,-3.681879 1.005105,-0.313305 0.433129,0.313305 0.364353,2.013528 c 1.329567,0.204549 2.1989,0.306823 2.607998,0.306823 0.06392,0 0.166195,-0.121451 0.306823,-0.364352 0.140627,-0.255687 0.21094,-0.492196 0.21094,-0.709529 -0.01278,-0.44745 -0.185371,-0.824588 -0.517763,-1.131411 -0.332392,-0.306823 -0.843765,-0.664784 -1.534116,-1.073881 -0.626431,-0.370745 -1.131411,-0.696745 -1.51494,-0.977999 -0.383529,-0.294039 -0.715921,-0.664785 -0.997176,-1.112235 -0.26847,-0.447451 -0.402705,-0.971607 -0.402705,-1.572469 0,-0.332392 0.03196,-0.652 0.09588,-0.958822 0.153411,-0.29404 0.466627,-0.639216 0.939646,-1.03553 0.485803,-0.409097 0.984392,-0.760665 1.495763,-1.054704 0.511372,-0.306823 0.888509,-0.460235 1.131411,-0.460235 0.217333,0 0.722313,0.04474 1.514939,0.134235 0.563811,0.05456 1.81677,-0.02912 1.81677,-0.02912 0,0 0.208407,0.268065 0.407699,0.297595 0,0 -0.267498,2.291863 -0.122924,4.682559 -0.108501,-0.270926 -0.382863,-0.243836 -0.565817,-0.202038 -0.722092,-1.245249 -1.46048,-1.180693 -1.46048,-1.180693 l 0.289105,-1.708183 c -1.342352,-0.230117 -2.166939,-0.345176 -2.473763,-0.345176 -0.115058,0 -0.21094,0.09588 -0.287646,0.287647 -0.0767,0.191765 -0.115059,0.441058 -0.115059,0.747881 0,0.460236 0.153412,0.862941 0.460235,1.208117 0.319608,0.332392 0.77345,0.671176 1.361529,1.016352 l 0.402705,0.230117 c 0.626431,0.370745 1.125019,0.696745 1.495764,0.977999 0.383529,0.26847 0.703136,0.607255 0.958822,1.016353 0.26847,0.409097 0.402706,0.888509 0.402706,1.438234 0,0.345176 -0.03835,0.671176 -0.115059,0.977999 -0.17898,0.345176 -0.50498,0.715921 -0.977999,1.112234 -0.460236,0.396314 -0.939647,0.735097 -1.438234,1.016352 -0.485804,0.26847 -0.869333,0.402705 -1.150587,0.402705 z"
             id="path10"
             transform="translate(0.49482154,0.23175212)" /><path
             style="font-size:20.4611px;fill:url(#linearGradient1027);fill-opacity:1;stroke:#000000;stroke-width:0.160562;stroke-dasharray:none;stroke-opacity:1"
             d="m 87.922882,80.27104 c 0,0 -1.94973,-0.04453 -2.134455,1.204738 -0.301214,-1.514767 -1.463137,0.05311 -1.689067,1.652215 -0.177477,-2.015101 -0.337769,-3.12542 -0.337769,-3.12542 l 0.134235,-3.681879 h 1.438234 l 0.364353,2.013528 c 1.329567,0.204549 2.1989,0.306823 2.607998,0.306823 0.06392,0 0.166195,-0.121451 0.306823,-0.364352 0.140627,-0.255687 0.21094,-0.492196 0.21094,-0.709529 -0.01278,-0.44745 -0.185371,-0.824588 -0.517763,-1.131411 -0.332392,-0.306823 -0.843765,-0.664784 -1.534116,-1.073881 -0.626431,-0.370745 -1.131411,-0.696745 -1.51494,-0.977999 -0.383529,-0.294039 -0.715921,-0.664785 -0.997176,-1.112235 -0.26847,-0.447451 -0.402705,-0.971607 -0.402705,-1.572469 0,-0.332392 0.03196,-0.652 0.09588,-0.958822 0.153411,-0.29404 0.466627,-0.639216 0.939646,-1.03553 0.485803,-0.409097 0.984392,-0.760665 1.495763,-1.054704 0.511372,-0.306823 0.888509,-0.460235 1.131411,-0.460235 0.217333,0 0.722313,0.04474 1.514939,0.134235 0.792628,0.07671 1.534118,0.166196 2.224469,0.268471 0,0 -0.267498,2.291863 -0.122924,4.682559 -0.0013,-0.0031 -0.0025,-0.0063 -0.0038,-0.0094 -0.617295,-1.5316 -1.464958,-1.240609 -1.464958,-1.240609 l -0.268471,-1.840939 c -1.342352,-0.230117 -2.166939,-0.345176 -2.473763,-0.345176 -0.115058,0 -0.21094,0.09588 -0.287646,0.287647 -0.0767,0.191765 -0.115059,0.441058 -0.115059,0.747881 0,0.460236 0.153412,0.862941 0.460235,1.208117 0.319608,0.332392 0.77345,0.671176 1.361529,1.016352 l 0.402705,0.230117 c 0.626431,0.370745 1.125019,0.696745 1.495764,0.977999 0.383529,0.26847 0.703136,0.607255 0.958822,1.016353 0.26847,0.409097 0.402706,0.888509 0.402706,1.438234 0,0.345176 -0.03835,0.671176 -0.115059,0.977999 -0.17898,0.345176 -0.50498,0.715921 -0.977999,1.112234 -0.460236,0.396314 -0.939647,0.735097 -1.438234,1.016352 -0.485804,0.26847 -0.869333,0.402705 -1.150587,0.402705 z"
             id="path995" /></g></g><g
         id="g887"
         transform="translate(-0.55543386,0.70354821)"
         style="font-size:16.9333px;font-family:Grenze;-inkscape-font-specification:Grenze;display:inline;fill:url(#linearGradient952);fill-opacity:1;stroke:#000000;stroke-width:0.19748;stroke-dasharray:none;stroke-opacity:1"><g
           id="g1058"
           style="fill:url(#linearGradient1059)"
           transform="translate(1.4217304)"><path
             style="font-size:14.1111px;font-family:Grenze;-inkscape-font-specification:Grenze;letter-spacing:0.124354px;display:inline;fill:#000000;fill-opacity:1;stroke:none;stroke-width:0.19748;stroke-dasharray:none;stroke-opacity:1"
             d="m 151.02822,65.717294 1.70951,-0.92955 V 58.45186 l -1.24178,0.112889 -0.16933,1.66511 h -1.04422 l -0.64822,-0.181038 0.46477,-2.711738 6.94686,-0.392554 0.44736,0.392554 -0.18345,2.892776 h -1.04422 l -0.64485,-0.189422 0.47552,-1.475688 -1.24178,-0.112889 v 6.307662 l 0.6309,-0.0533 0.45566,0.363742 v 0.846666 h -4.26155 z"
             id="path1004"
             transform="translate(0.55543336,0.28630225)" /><path
             style="font-size:14.1111px;letter-spacing:0.124354px;fill:url(#linearGradient1036);fill-opacity:1;stroke:#000000;stroke-width:0.19748;stroke-dasharray:none;stroke-opacity:1"
             d="m 151.6794,65.112299 1.05833,-0.324555 V 58.45186 l -1.24178,0.112889 -0.16933,1.66511 h -1.04422 l -0.18345,-2.892776 h 7.39422 l -0.18345,2.892776 h -1.04422 l -0.16933,-1.66511 -1.24178,-0.112889 v 6.307662 l 1.08656,0.310444 v 0.846666 h -4.26155 z"
             id="path20" /></g><g
           id="g1057"
           style="fill:url(#linearGradient1060)"
           transform="translate(1.4218245)"><path
             style="font-size:14.1111px;font-family:Grenze;-inkscape-font-specification:Grenze;letter-spacing:0.124354px;display:inline;fill:#000000;fill-opacity:1;stroke:none;stroke-width:0.19748;stroke-dasharray:none;stroke-opacity:1"
             d="m 142.31245,65.725873 1.51505,-0.938129 v -6.321773 l -0.86078,-0.324555 v -0.804333 l 5.79157,-0.387936 0.44554,0.387936 c 0,0 -0.11496,1.205811 -0.13736,1.607299 -0.51601,0.04689 -1.08216,0.051 -1.08216,0.051 l -0.62094,-0.186226 0.47624,-0.323518 -1.90956,0.05089 v 2.624664 l 1.61925,-0.310936 0.45508,0.381496 v 1.044221 l -2.07433,0.08467 v 2.31422 l 0.95542,0.02193 0.45569,0.35907 v 0.860777 h -4.37444 z"
             id="path1005"
             transform="translate(0.55543336,0.28630225)" /><path
             style="font-size:14.1111px;letter-spacing:0.124354px;fill:url(#linearGradient1037);fill-opacity:1;stroke:#000000;stroke-width:0.19748;stroke-dasharray:none;stroke-opacity:1"
             d="m 142.96672,65.112299 0.86078,-0.324555 v -6.321773 l -0.86078,-0.324555 v -0.804333 h 6.23711 c 0,0 -0.11496,1.205811 -0.13736,1.607299 -0.51601,0.04689 -0.60396,0.0476 -1.08216,0.051 -0.11278,-0.285069 -0.1447,-0.509744 -0.1447,-0.509744 l -1.90956,0.05089 v 2.624664 l 2.07433,0.07056 v 1.044221 l -2.07433,0.08467 v 2.31422 l 1.41111,0.381 v 0.860777 h -4.37444 z"
             id="path19" /></g><g
           id="g1056"
           style="fill:url(#linearGradient1061)"
           transform="translate(1.6589813)"><path
             id="path1006"
             style="font-size:14.1111px;font-family:Grenze;-inkscape-font-specification:Grenze;letter-spacing:0.124354px;display:inline;fill:#000000;fill-opacity:1;stroke:none;stroke-width:0.19748;stroke-dasharray:none;stroke-opacity:1"
             d="m 138.33849,56.989184 c 0,0 -0.31198,0.244332 -0.75413,0.291372 -0.43274,0.03763 -0.83758,0.08463 -1.21388,0.141077 l -2.32802,7.408333 -1.50297,0.882531 0.62809,0.204225 h 3.65456 v -0.903304 l -0.46223,-0.368137 -0.52531,0.114405 0.33848,-1.439705 h 2.39882 l 0.39532,1.439705 -1.6085,0.969566 0.64887,0.18747 h 4.04989 V 65.11212 l -0.45732,-0.358965 -0.41757,0.07681 -2.37039,-7.493082 z m -1.05075,1.970858 h 0.15555 l 0.8325,3.273702 h -1.82056 z"
             transform="translate(0.55543336,0.28630225)" /><path
             id="path17"
             style="font-size:14.1111px;letter-spacing:0.124354px;fill:url(#linearGradient1038);fill-opacity:1;stroke:#000000;stroke-width:0.19748;stroke-dasharray:none;stroke-opacity:1"
             d="m 138.52953,57.181856 c -0.18815,0.01881 -0.50302,0.05166 -0.94517,0.0987 -0.43274,0.03763 -0.83758,0.08463 -1.21388,0.141077 l -2.32802,7.408333 -0.87488,0.282154 v 0.804602 h 3.65456 v -0.903304 l -0.98754,-0.253732 0.33848,-1.439705 h 2.39882 l 0.39532,1.439705 -0.95963,0.253732 v 0.903304 h 4.04989 V 65.11212 l -0.87489,-0.282154 -2.37039,-7.493082 c -0.15995,-0.103482 -0.25447,-0.15503 -0.28267,-0.15503 z m -1.24179,1.778186 h 0.15555 l 0.8325,3.273702 h -1.82056 z" /></g><g
           id="g1055"
           style="display:inline;fill:url(#linearGradient1062)"
           transform="translate(1.9745345)"><path
             id="path1007"
             style="font-size:14.1111px;font-family:Grenze;-inkscape-font-specification:Grenze;letter-spacing:0.124354px;display:inline;fill:#000000;fill-opacity:1;stroke:none;stroke-width:0.19748;stroke-dasharray:none;stroke-opacity:1"
             d="m 124.48213,57.336886 v 0.804602 l 0.86093,0.324528 v 6.321578 l -1.50749,0.934142 0.64656,0.194988 h 3.85248 v -0.874882 l -0.45795,-0.352065 -0.43089,-9.66e-4 V 62.44502 h 0.69144 l 0.92569,3.270653 0.61219,0.20097 h 2.58227 v -0.832508 l -0.47229,-0.35078 -0.28942,0.05416 -0.5364,-0.888835 -1.002,-1.665015 v -0.08475 c 0.43275,-0.188148 0.77643,-0.484317 1.03042,-0.888835 0.254,-0.404518 0.38086,-0.917518 0.38086,-1.538407 0,-0.856073 -0.19308,-1.467624 -0.57878,-1.834513 -0.37629,-0.366889 -0.94033,-0.550354 -1.69292,-0.550354 z m 4.03593,1.058333 c 0.47978,0 0.71985,0.545851 0.71985,1.637109 0,0.376296 -0.0379,0.658312 -0.11317,0.84646 -0.0753,0.178739 -0.18796,0.2965 -0.33848,0.35295 -0.14111,0.05645 -0.33873,0.08475 -0.59273,0.08475 h -0.74776 v -2.794145 z"
             transform="translate(0.55543336,0.28630225)" /><path
             id="path15"
             style="font-size:14.1111px;letter-spacing:0.124354px;fill:url(#linearGradient1039);fill-opacity:1;stroke:#000000;stroke-width:0.19748;stroke-dasharray:none;stroke-opacity:1"
             d="m 124.48213,57.336886 v 0.804602 l 0.86093,0.324528 v 6.321578 l -0.86093,0.324528 v 0.804602 h 3.85248 v -0.874882 l -0.88884,-0.35295 v -2.243791 h 0.69144 l 1.53788,3.471623 h 2.58227 v -0.832508 l -0.76171,-0.296622 -0.5364,-0.888835 -1.002,-1.665015 v -0.08475 c 0.43275,-0.188148 0.77643,-0.484317 1.03042,-0.888835 0.254,-0.404518 0.38086,-0.917518 0.38086,-1.538407 0,-0.856073 -0.19308,-1.467624 -0.57878,-1.834513 -0.37629,-0.366889 -0.94033,-0.550354 -1.69292,-0.550354 z m 4.03593,1.058333 c 0.47978,0 0.71985,0.545851 0.71985,1.637109 0,0.376296 -0.0379,0.658312 -0.11317,0.84646 -0.0753,0.178739 -0.18796,0.2965 -0.33848,0.35295 -0.14111,0.05645 -0.33873,0.08475 -0.59273,0.08475 h -0.74776 v -2.794145 z" /></g><g
           id="g1054"
           style="display:inline;fill:url(#linearGradient1063)"
           transform="translate(1.5008948)"><path
             style="font-size:14.1111px;font-family:Grenze;-inkscape-font-specification:Grenze;letter-spacing:0.124354px;display:inline;fill:#000000;fill-opacity:1;stroke:none;stroke-width:0.19748;stroke-dasharray:none;stroke-opacity:1"
             d="m 120.80889,66.071854 c -1.02541,0 -1.81563,-0.338666 -2.37067,-1.015999 -0.54563,-0.677333 -0.81844,-1.721554 -0.81844,-3.132664 0,-0.592667 0.0423,-1.138296 0.127,-1.636888 0.0847,-0.507999 0.19285,-0.931332 0.32455,-1.269999 0.18815,-0.235185 0.47978,-0.498592 0.87489,-0.790222 0.40452,-0.291629 0.80904,-0.536222 1.21355,-0.733777 0.40452,-0.206963 0.69615,-0.310444 0.87489,-0.310444 0.13171,0 2.12003,-0.109298 2.12003,-0.109298 l 0.44819,0.363301 -0.16933,2.793998 h -1.04422 l -0.63912,-0.194975 0.44156,-1.441913 c 0.0628,-0.205118 -0.46096,-0.103484 -0.762,-0.141111 -0.29163,-0.04703 -0.52211,-0.07055 -0.69144,-0.07055 -0.16933,0 -0.29633,0.02352 -0.381,0.07055 -0.15993,0.09407 -0.29163,0.423333 -0.39511,0.987777 -0.0941,0.564444 -0.14111,1.265295 -0.14111,2.102554 0,1.175925 0.13641,1.999072 0.40922,2.469442 0.28222,0.460963 0.69615,0.691444 1.24178,0.691444 h 0.73377 l 0.80916,-2.133206 0.46084,0.38343 0.0564,2.765776 c -0.29163,0.06585 -0.78551,0.141112 -1.48166,0.225777 -0.68674,0.08467 -1.10067,0.127 -1.24178,0.127 z"
             id="path1008"
             transform="translate(0.55543336,0.28630225)" /><path
             style="font-size:14.1111px;letter-spacing:0.124354px;fill:url(#linearGradient1040);fill-opacity:1;stroke:#000000;stroke-width:0.19748;stroke-dasharray:none;stroke-opacity:1"
             d="m 120.80889,66.071854 c -1.02541,0 -1.81563,-0.338666 -2.37067,-1.015999 -0.54563,-0.677333 -0.81844,-1.721554 -0.81844,-3.132664 0,-0.592667 0.0423,-1.138296 0.127,-1.636888 0.0847,-0.507999 0.19285,-0.931332 0.32455,-1.269999 0.18815,-0.235185 0.47978,-0.498592 0.87489,-0.790222 0.40452,-0.291629 0.80904,-0.536222 1.21355,-0.733777 0.40452,-0.206963 0.69615,-0.310444 0.87489,-0.310444 0.13171,0 0.47508,0.02822 1.03011,0.08467 0.55504,0.05645 1.06774,0.112891 1.53811,0.169333 l -0.16933,2.793998 h -1.04422 l -0.19756,-1.636888 c -0.20696,-0.05645 -0.46096,-0.103484 -0.762,-0.141111 -0.29163,-0.04703 -0.52211,-0.07055 -0.69144,-0.07055 -0.16933,0 -0.29633,0.02352 -0.381,0.07055 -0.15993,0.09407 -0.29163,0.423333 -0.39511,0.987777 -0.0941,0.564444 -0.14111,1.265295 -0.14111,2.102554 0,1.175925 0.13641,1.999072 0.40922,2.469442 0.28222,0.460963 0.69615,0.691444 1.24178,0.691444 h 0.73377 l 0.254,-1.749776 h 1.016 l 0.0564,2.765776 c -0.29163,0.06585 -0.78551,0.141112 -1.48166,0.225777 -0.68674,0.08467 -1.10067,0.127 -1.24178,0.127 z"
             id="path14" /></g><g
           id="g1053"
           style="fill:url(#linearGradient1064)"
           transform="translate(0.94800353)"><path
             style="font-size:14.1111px;font-family:Grenze;-inkscape-font-specification:Grenze;letter-spacing:0.124354px;display:inline;fill:#000000;fill-opacity:1;stroke:none;stroke-width:0.19748;stroke-dasharray:none;stroke-opacity:1"
             d="m 107.81805,65.726236 1.50084,-0.938492 v -6.321773 l -0.86078,-0.324555 3.35053,-1.191309 0.45947,0.386976 v 0.903111 l -0.87489,0.338666 v 2.398887 h 2.65289 V 58.57886 l -0.86078,-0.338666 3.33632,-1.288622 0.45957,0.385511 v 0.804333 l -0.86078,0.324555 v 6.321773 l 0.40345,-0.02795 0.45733,0.3525 v 0.804333 h -3.79589 l -0.65149,-0.186187 1.51227,-1.05559 v -2.610553 h -2.65289 v 2.610553 l 0.41132,-0.06083 0.46357,0.357167 v 0.945444 h -3.81 z"
             id="path1009"
             transform="translate(0.55543336,0.28630225)" /><path
             style="font-size:14.1111px;letter-spacing:0.124354px;fill:url(#linearGradient1041);fill-opacity:1;stroke:#000000;stroke-width:0.19748;stroke-dasharray:none;stroke-opacity:1"
             d="m 108.45811,65.112299 0.86078,-0.324555 v -6.321773 l -0.86078,-0.324555 v -0.804333 h 3.81 v 0.903111 l -0.87489,0.338666 v 2.398887 h 2.65289 V 58.57886 l -0.86078,-0.338666 v -0.903111 h 3.79589 v 0.804333 l -0.86078,0.324555 v 6.321773 l 0.86078,0.324555 v 0.804333 h -3.79589 v -0.945444 l 0.86078,-0.296333 v -2.610553 h -2.65289 v 2.610553 l 0.87489,0.296333 v 0.945444 h -3.81 z"
             id="path13" /></g><g
           id="g1052"
           style="display:inline;fill:url(#linearGradient1065)"
           transform="translate(0.39493775)"><path
             style="font-size:14.1111px;font-family:Grenze;-inkscape-font-specification:Grenze;letter-spacing:0.124354px;display:inline;fill:#000000;fill-opacity:1;stroke:none;stroke-width:0.19748;stroke-dasharray:none;stroke-opacity:1"
             d="m 104.97531,66.071854 c -0.47037,0 -1.25119,-0.04704 -2.34244,-0.141111 l -1.37547,-0.268881 0.7546,-2.496891 0.58726,-0.378699 0.73918,1.860365 c 0.97837,0.150519 1.61808,0.225778 1.91911,0.225778 0.047,0 0.1223,-0.08937 0.22578,-0.268111 0.10348,-0.188148 0.15522,-0.362185 0.15522,-0.522111 -0.009,-0.329259 -0.1364,-0.606778 -0.381,-0.832555 -0.24459,-0.225777 -0.62089,-0.489185 -1.12889,-0.790222 -0.46096,-0.272814 -0.83255,-0.512703 -1.11477,-0.719666 -0.28222,-0.21637 -0.52682,-0.489184 -0.73378,-0.818443 -0.19755,-0.329259 -0.29633,-0.714963 -0.29633,-1.157111 0,-0.244592 0.0235,-0.479777 0.0706,-0.705555 0.11289,-0.21637 0.34337,-0.47037 0.69144,-0.761999 0.35748,-0.301037 0.72437,-0.55974 1.10067,-0.776111 0.37629,-0.225777 0.65381,-0.338666 0.83255,-0.338666 0.15993,0 0.53152,0.03293 1.11478,0.09878 0.29163,0.02822 1.18149,-0.173826 1.18149,-0.173826 l 0.4554,0.371381 -0.11289,2.525887 -1.67719,-0.193968 0.42129,-1.160698 c -0.98777,-0.169333 -1.59455,-0.253999 -1.82033,-0.253999 -0.0847,0 -0.15522,0.07055 -0.21167,0.211666 -0.0564,0.141111 -0.0847,0.324556 -0.0847,0.550333 0,0.338667 0.11289,0.635 0.33867,0.888999 0.23519,0.244593 0.56915,0.493889 1.00189,0.747889 l 0.29633,0.169333 c 0.46096,0.272815 0.82785,0.512703 1.10067,0.719666 0.28222,0.197555 0.5174,0.446851 0.70555,0.747888 0.19756,0.301037 0.29634,0.653814 0.29634,1.058333 0,0.253999 -0.0282,0.493888 -0.0847,0.719666 -0.13171,0.254 -0.3716,0.526815 -0.71967,0.818444 -0.33867,0.291629 -0.69144,0.540925 -1.05833,0.747888 -0.35748,0.197555 -0.63971,0.296333 -0.84667,0.296333 z"
             id="path1010"
             transform="translate(0.55543336,0.28630225)" /><path
             style="font-size:14.1111px;letter-spacing:0.124354px;fill:url(#linearGradient1042);fill-opacity:1;stroke:#000000;stroke-width:0.19748;stroke-dasharray:none;stroke-opacity:1"
             d="m 104.97531,66.071854 c -0.47037,0 -1.25119,-0.04704 -2.34244,-0.141111 l -0.71967,-0.05644 0.0988,-2.709332 h 1.05833 l 0.26811,1.481666 c 0.97837,0.150519 1.61808,0.225778 1.91911,0.225778 0.047,0 0.1223,-0.08937 0.22578,-0.268111 0.10348,-0.188148 0.15522,-0.362185 0.15522,-0.522111 -0.009,-0.329259 -0.1364,-0.606778 -0.381,-0.832555 -0.24459,-0.225777 -0.62089,-0.489185 -1.12889,-0.790222 -0.46096,-0.272814 -0.83255,-0.512703 -1.11477,-0.719666 -0.28222,-0.21637 -0.52682,-0.489184 -0.73378,-0.818443 -0.19755,-0.329259 -0.29633,-0.714963 -0.29633,-1.157111 0,-0.244592 0.0235,-0.479777 0.0706,-0.705555 0.11289,-0.21637 0.34337,-0.47037 0.69144,-0.761999 0.35748,-0.301037 0.72437,-0.55974 1.10067,-0.776111 0.37629,-0.225777 0.65381,-0.338666 0.83255,-0.338666 0.15993,0 0.53152,0.03293 1.11478,0.09878 0.58326,0.05645 1.12889,0.122298 1.63689,0.197555 l -0.11289,2.525887 h -1.05834 l -0.19756,-1.354666 c -0.98777,-0.169333 -1.59455,-0.253999 -1.82033,-0.253999 -0.0847,0 -0.15522,0.07055 -0.21167,0.211666 -0.0564,0.141111 -0.0847,0.324556 -0.0847,0.550333 0,0.338667 0.11289,0.635 0.33867,0.888999 0.23519,0.244593 0.56915,0.493889 1.00189,0.747889 l 0.29633,0.169333 c 0.46096,0.272815 0.82785,0.512703 1.10067,0.719666 0.28222,0.197555 0.5174,0.446851 0.70555,0.747888 0.19756,0.301037 0.29634,0.653814 0.29634,1.058333 0,0.253999 -0.0282,0.493888 -0.0847,0.719666 -0.13171,0.254 -0.3716,0.526815 -0.71967,0.818444 -0.33867,0.291629 -0.69144,0.540925 -1.05833,0.747888 -0.35748,0.197555 -0.63971,0.296333 -0.84667,0.296333 z"
             id="path12" /></g><g
           id="g1051"
           style="fill:url(#linearGradient1073)"
           transform="translate(0.07934353)"><path
             style="font-size:14.1111px;font-family:Grenze;-inkscape-font-specification:Grenze;letter-spacing:0.124354px;display:inline;fill:#000000;fill-opacity:1;stroke:none;stroke-width:0.19748;stroke-dasharray:none;stroke-opacity:1"
             d="m 95.925388,66.071854 c -0.903111,0 -1.547518,-0.225778 -1.933221,-0.677333 -0.385703,-0.460963 -0.578555,-1.180629 -0.578555,-2.158998 v -4.769552 l -0.860777,-0.324555 v -0.804333 l 3.300218,-0.379844 0.453335,0.379844 v 0.903111 l -0.818444,0.338666 v 4.247441 c 0,0.611481 0.07055,1.016 0.211666,1.213555 0.141111,0.188148 0.348074,0.282222 0.620889,0.282222 0.206963,0 0.512703,-0.05174 0.917221,-0.155222 0.404519,-0.112889 0.639704,-0.178741 0.705555,-0.197556 v -5.39044 l -0.818443,-0.338666 v -0.903111 l 3.294058,-0.378812 0.45949,0.378812 v 0.804333 l -0.86077,0.324555 0.0424,6.314072 0.36103,-0.02246 0.45738,0.354718 v 0.804333 H 98.324275 L 97.70556,65.72715 98.013831,65.069966 c -1.307629,0.667925 -2.003776,1.001888 -2.088443,1.001888 z"
             id="path1011"
             transform="translate(0.55543336,0.28630225)" /><path
             style="font-size:14.1111px;letter-spacing:0.124354px;fill:url(#linearGradient1043);fill-opacity:1;stroke:#000000;stroke-width:0.19748;stroke-dasharray:none;stroke-opacity:1"
             d="m 95.925388,66.071854 c -0.903111,0 -1.547518,-0.225778 -1.933221,-0.677333 -0.385703,-0.460963 -0.578555,-1.180629 -0.578555,-2.158998 v -4.769552 l -0.860777,-0.324555 v -0.804333 h 3.753553 v 0.903111 l -0.818444,0.338666 v 4.247441 c 0,0.611481 0.07055,1.016 0.211666,1.213555 0.141111,0.188148 0.348074,0.282222 0.620889,0.282222 0.206963,0 0.512703,-0.05174 0.917221,-0.155222 0.404519,-0.112889 0.639704,-0.178741 0.705555,-0.197556 v -5.39044 l -0.818443,-0.338666 v -0.903111 h 3.753548 v 0.804333 l -0.86077,0.324555 v 6.321773 l 0.86077,0.324555 v 0.804333 h -2.554105 l -0.310444,-0.846666 c -1.307629,0.667925 -2.003776,1.001888 -2.088443,1.001888 z"
             id="path9" /></g><g
           id="g1059"
           style="font-size:16.9333px;font-family:Grenze;-inkscape-font-specification:Grenze;display:inline;fill:url(#linearGradient1072);fill-opacity:1;stroke:#000000;stroke-width:0.19748;stroke-dasharray:none;stroke-opacity:1"
           transform="translate(-0.2369759)"><path
             style="font-size:16.9333px;font-family:Grenze;-inkscape-font-specification:Grenze;letter-spacing:0.124354px;display:inline;fill:#000000;fill-opacity:1;stroke:none;stroke-width:0.19748;stroke-dasharray:none;stroke-opacity:1"
             d="m 82.596055,65.713793 1.686381,-1.151825 V 56.97585 l -1.032931,-0.389466 v -0.965198 l 5.719945,-0.174253 c 0.880123,-0.02681 1.284797,0.371808 1.713774,0.766918 0.428977,0.383821 0.643465,1.061153 0.643465,2.031996 0,0.462843 -0.09031,0.846665 -0.270933,1.151465 -0.169333,0.29351 -0.355599,0.513643 -0.558799,0.660398 -0.191911,0.135467 -0.434621,0.276578 -0.728132,0.423333 v 0.1016 c 0.632177,0.112889 1.140176,0.383821 1.523997,0.812798 0.383822,0.417688 0.575733,0.94262 0.575733,1.574797 0,1.061153 -0.282222,1.817507 -0.846665,2.269062 -0.553155,0.451555 -1.29822,0.677332 -2.235196,0.677332 h -5.537189 z m 5.022241,-5.605283 c 0.417688,0 0.716843,-0.1016 0.897465,-0.304799 0.180622,-0.2032 0.270933,-0.603955 0.270933,-1.202265 0,-0.632176 -0.05644,-1.089375 -0.169333,-1.371597 -0.1016,-0.282221 -0.287866,-0.417688 -0.558799,-0.406399 l -1.253064,0.169333 v 3.115727 z m 0.728132,4.605858 c 0.338666,0.02258 0.581377,-0.112886 0.728132,-0.406399 0.146755,-0.3048 0.220133,-0.818444 0.220133,-1.540931 0,-0.39511 -0.0508,-0.68862 -0.1524,-0.880531 -0.09031,-0.191911 -0.220133,-0.310444 -0.389466,-0.3556 -0.158044,-0.05645 -0.389466,-0.08467 -0.694265,-0.08467 h -1.253064 v 3.08186 z"
             id="path1003"
             transform="translate(0.55543336,0.28630225)" /><path
             style="letter-spacing:0.124354px;fill:url(#linearGradient1035);fill-opacity:1;stroke:#000000;stroke-width:0.19748;stroke-dasharray:none;stroke-opacity:1"
             d="m 83.170513,64.951434 1.032931,-0.389466 V 56.97585 l -1.032931,-0.389466 v -0.965198 h 5.469456 q 1.320797,0 1.964263,0.592665 0.643465,0.575732 0.643465,2.031996 0,0.694265 -0.270933,1.151465 -0.253999,0.440265 -0.558799,0.660398 -0.287866,0.2032 -0.728132,0.423333 v 0.1016 q 0.948265,0.169333 1.523997,0.812798 0.575733,0.626532 0.575733,1.574797 0,1.59173 -0.846665,2.269062 -0.829732,0.677332 -2.235196,0.677332 h -5.537189 z m 4.368791,-4.842924 q 0.626532,0 0.897465,-0.304799 0.270933,-0.3048 0.270933,-1.202265 0,-0.948264 -0.169333,-1.371597 -0.1524,-0.423332 -0.558799,-0.406399 l -1.253064,0.169333 v 3.115727 z m 0.728132,4.605858 q 0.507999,0.03387 0.728132,-0.406399 0.220133,-0.4572 0.220133,-1.540931 0,-0.592665 -0.1524,-0.880531 -0.135466,-0.287866 -0.389466,-0.3556 -0.237066,-0.08467 -0.694265,-0.08467 h -1.253064 v 3.08186 z"
             id="path8" /></g></g></g></g></svg>
